<?xml version="1.0" encoding="UTF-8" ?>
<!DOCTYPE svg PUBLIC "-//W3C//DTD SVG 1.1//EN" "http://www.w3.org/Graphics/SVG/1.1/DTD/svg11.dtd">
<svg width="540pt" height="960pt" viewBox="0 0 540 960" version="1.1" xmlns="http://www.w3.org/2000/svg">
<g id="#fefefeff">
<path fill="#fefefe" opacity="1.00" d=" M 0.00 0.00 L 540.00 0.00 L 540.00 960.00 L 0.00 960.00 L 0.00 0.00 M 362.11 436.97 C 359.49 439.35 354.34 439.67 354.31 444.06 C 355.38 444.53 356.44 445.01 357.50 445.51 C 357.77 446.41 358.09 447.30 358.38 448.21 C 355.27 448.36 352.17 448.61 349.08 448.92 C 343.76 450.59 338.19 450.90 332.66 450.45 C 336.97 451.71 332.42 455.13 333.07 457.63 C 335.68 456.74 336.86 453.11 339.90 453.37 C 343.34 453.28 346.73 452.60 350.18 452.67 C 351.04 453.24 351.91 453.80 352.78 454.37 C 353.54 454.35 355.07 454.31 355.83 454.29 C 355.87 458.38 352.06 460.29 349.21 462.36 C 347.63 465.67 346.05 469.01 344.31 472.23 C 342.10 474.48 339.95 476.79 338.20 479.43 C 336.20 482.31 331.84 483.75 332.10 487.85 C 334.16 487.73 336.26 487.35 337.70 485.72 C 339.48 483.50 342.03 481.86 342.96 479.04 C 345.95 477.14 347.78 473.99 350.61 471.90 C 350.62 472.42 350.65 473.47 350.66 474.00 C 347.06 476.35 346.21 480.83 343.68 484.07 C 343.48 485.72 343.34 487.41 342.65 488.96 C 342.59 490.74 343.10 492.43 343.69 494.09 C 345.80 493.62 345.23 491.38 345.77 489.91 C 346.53 487.51 347.60 485.21 348.57 482.90 C 351.64 478.54 356.26 475.47 359.26 471.06 C 360.43 466.37 362.86 462.20 365.83 458.43 C 366.56 458.49 367.29 458.56 368.02 458.63 C 368.99 461.50 371.03 463.99 371.54 467.01 C 372.11 468.91 370.88 472.85 374.75 471.50 C 374.72 469.82 374.96 468.07 374.04 466.59 C 372.16 462.84 371.35 458.69 370.22 454.69 C 368.81 452.01 366.27 449.15 368.28 446.05 C 367.75 442.01 367.12 438.00 367.46 433.92 C 365.60 434.80 363.90 435.98 362.11 436.97 M 175.19 467.18 C 173.61 468.18 174.75 470.49 174.35 471.97 C 172.06 471.16 168.10 471.67 168.08 468.30 C 167.36 468.37 165.93 468.51 165.21 468.57 C 164.14 467.62 162.86 467.19 161.38 467.29 C 162.12 468.92 162.74 470.63 161.54 472.24 C 164.36 472.14 166.65 473.80 169.01 475.08 C 170.89 475.44 172.81 475.55 174.70 475.90 C 172.34 477.14 169.74 477.64 167.09 477.31 C 166.53 476.68 165.41 475.40 164.85 474.76 C 164.10 476.11 163.58 477.55 163.29 479.08 C 165.78 480.76 168.19 482.58 170.84 484.01 C 173.55 485.35 176.85 484.86 179.35 483.28 C 179.91 481.65 180.46 480.02 180.89 478.36 C 183.16 478.22 185.44 478.20 187.71 478.23 C 187.63 477.45 187.55 476.66 187.47 475.89 C 186.62 475.72 184.94 475.39 184.10 475.22 C 184.32 473.37 184.67 471.53 185.60 469.90 C 185.26 469.59 184.60 468.99 184.26 468.68 C 181.91 466.29 178.19 465.63 175.19 467.18 M 225.85 490.47 C 225.51 491.58 225.16 492.70 224.80 493.81 C 224.78 494.55 224.73 496.01 224.71 496.74 C 223.45 496.25 222.21 495.75 220.97 495.25 C 219.82 494.11 218.84 492.24 216.99 492.36 C 213.90 492.38 210.81 492.23 207.89 491.13 C 206.00 490.31 203.96 490.21 201.94 490.45 C 199.91 492.82 198.76 495.76 199.64 498.90 C 203.06 498.73 204.11 495.36 205.76 493.00 C 205.62 495.26 205.31 497.52 205.26 499.79 C 206.78 499.56 208.59 499.54 208.96 497.67 C 209.39 497.66 210.26 497.62 210.69 497.61 C 210.10 500.91 210.19 504.29 211.81 507.31 C 216.94 506.83 221.92 509.06 227.00 507.79 C 232.71 509.54 238.40 507.20 244.16 507.41 C 246.68 506.18 248.93 504.48 251.28 502.96 C 253.95 502.25 256.76 502.04 259.50 502.40 C 259.48 501.46 259.45 500.53 259.43 499.61 C 256.91 499.91 254.39 500.30 251.98 501.12 C 250.36 501.69 248.73 502.24 247.13 502.84 C 247.93 499.15 247.32 495.34 248.98 491.80 C 245.79 489.90 242.01 489.97 238.47 490.63 C 238.36 491.79 238.27 492.96 238.19 494.14 C 237.99 494.63 237.57 495.60 237.37 496.09 C 236.05 497.44 236.14 499.35 236.06 501.10 C 235.90 500.77 235.58 500.11 235.42 499.77 C 232.76 499.22 231.13 496.70 228.48 496.08 C 228.52 494.13 227.99 492.27 227.37 490.45 C 226.99 490.46 226.23 490.47 225.85 490.47 M 282.46 490.17 C 282.69 491.95 282.71 494.29 284.54 495.25 C 288.70 497.48 292.74 499.92 296.91 502.13 C 295.44 503.17 293.93 504.42 292.05 504.55 C 286.83 505.61 281.37 500.91 276.58 504.65 C 275.92 506.43 275.23 508.32 276.23 510.13 C 276.02 510.43 275.58 511.04 275.37 511.34 C 274.46 511.85 273.55 512.38 272.65 512.90 C 272.62 513.66 272.59 514.42 272.56 515.19 C 273.73 515.26 274.90 515.33 276.07 515.42 C 276.68 517.64 277.58 519.95 279.67 521.19 C 281.92 522.25 281.43 524.91 281.69 526.94 C 282.45 526.76 283.21 526.59 283.97 526.42 C 285.40 524.02 288.37 523.77 290.52 522.32 C 297.02 518.58 300.31 511.36 305.90 506.63 C 309.60 505.63 313.53 506.25 316.84 508.13 C 318.92 508.63 320.73 509.80 321.95 511.57 C 323.05 510.78 324.39 510.54 325.70 510.33 C 325.65 509.96 325.56 509.20 325.51 508.83 C 320.96 508.80 317.27 505.80 313.32 503.94 C 313.34 501.04 315.34 498.65 316.47 496.09 C 316.08 495.27 315.70 494.45 315.34 493.64 C 313.77 492.57 311.91 492.32 310.06 492.60 C 308.58 493.87 306.72 493.82 304.90 493.66 C 304.12 494.39 303.35 495.13 302.57 495.87 C 302.59 496.49 302.62 497.73 302.63 498.35 C 300.75 498.41 298.88 498.66 297.00 498.74 C 293.77 498.16 290.93 496.40 287.90 495.25 C 285.44 494.21 284.91 491.19 282.46 490.17 Z" />
</g>
<g id="#0f0f10ff">
<path fill="#0f0f10" opacity="1.00" d=" M 362.11 436.97 C 363.90 435.98 365.60 434.80 367.46 433.92 C 367.12 438.00 367.75 442.01 368.28 446.05 C 366.27 449.15 368.81 452.01 370.22 454.69 C 371.35 458.69 372.16 462.84 374.04 466.59 C 374.96 468.07 374.72 469.82 374.75 471.50 C 370.88 472.85 372.11 468.91 371.54 467.01 C 371.03 463.99 368.99 461.50 368.02 458.63 C 367.29 458.56 366.56 458.49 365.83 458.43 C 362.86 462.20 360.43 466.37 359.26 471.06 C 356.26 475.47 351.64 478.54 348.57 482.90 C 347.60 485.21 346.53 487.51 345.77 489.91 C 345.23 491.38 345.80 493.62 343.69 494.09 C 343.10 492.43 342.59 490.74 342.65 488.96 C 343.34 487.41 343.48 485.72 343.68 484.07 C 346.21 480.83 347.06 476.35 350.66 474.00 C 350.65 473.47 350.62 472.42 350.61 471.90 C 347.78 473.99 345.95 477.14 342.96 479.04 C 342.03 481.86 339.48 483.50 337.70 485.72 C 336.26 487.35 334.16 487.73 332.10 487.85 C 331.84 483.75 336.20 482.31 338.20 479.43 C 339.95 476.79 342.10 474.48 344.31 472.23 C 346.05 469.01 347.63 465.67 349.21 462.36 C 352.06 460.29 355.87 458.38 355.83 454.29 C 355.07 454.31 353.54 454.35 352.78 454.37 C 351.91 453.80 351.04 453.24 350.18 452.67 C 346.73 452.60 343.34 453.28 339.90 453.37 C 336.86 453.11 335.68 456.74 333.07 457.63 C 332.42 455.13 336.97 451.71 332.66 450.45 C 338.19 450.90 343.76 450.59 349.08 448.92 C 352.17 448.61 355.27 448.36 358.38 448.21 C 358.09 447.30 357.77 446.41 357.50 445.51 C 356.44 445.01 355.38 444.53 354.31 444.06 C 354.34 439.67 359.49 439.35 362.11 436.97 Z" />
<path fill="#0f0f10" opacity="1.00" d=" M 175.19 467.18 C 178.19 465.63 181.91 466.29 184.26 468.68 C 184.60 468.99 185.26 469.59 185.60 469.90 C 184.67 471.53 184.32 473.37 184.10 475.22 C 184.94 475.39 186.62 475.72 187.47 475.89 C 187.55 476.66 187.63 477.45 187.71 478.23 C 185.44 478.20 183.16 478.22 180.89 478.36 C 180.46 480.02 179.91 481.65 179.35 483.28 C 176.85 484.86 173.55 485.35 170.84 484.01 C 168.19 482.58 165.78 480.76 163.29 479.08 C 163.58 477.55 164.10 476.11 164.85 474.76 C 165.41 475.40 166.53 476.68 167.09 477.31 C 169.74 477.64 172.34 477.14 174.70 475.90 C 172.81 475.55 170.89 475.44 169.01 475.08 C 166.65 473.80 164.36 472.14 161.54 472.24 C 162.74 470.63 162.12 468.92 161.38 467.29 C 162.86 467.19 164.14 467.62 165.21 468.57 C 165.93 468.51 167.36 468.37 168.08 468.30 C 168.10 471.67 172.06 471.16 174.35 471.97 C 174.75 470.49 173.61 468.18 175.19 467.18 Z" />
<path fill="#0f0f10" opacity="1.00" d=" M 225.85 490.47 C 226.23 490.47 226.99 490.46 227.37 490.45 C 227.99 492.27 228.52 494.13 228.48 496.08 C 231.13 496.70 232.76 499.22 235.42 499.77 C 235.58 500.11 235.90 500.77 236.06 501.10 C 236.14 499.35 236.05 497.44 237.37 496.09 C 237.57 495.60 237.99 494.63 238.19 494.14 C 238.27 492.96 238.36 491.79 238.47 490.63 C 242.01 489.97 245.79 489.90 248.98 491.80 C 247.32 495.34 247.93 499.15 247.13 502.84 C 248.73 502.24 250.36 501.69 251.98 501.12 C 254.39 500.30 256.91 499.91 259.43 499.61 C 259.45 500.53 259.48 501.46 259.50 502.40 C 256.76 502.04 253.95 502.25 251.28 502.96 C 248.93 504.48 246.68 506.18 244.16 507.41 C 238.40 507.20 232.71 509.54 227.00 507.79 C 221.92 509.06 216.94 506.83 211.81 507.31 C 210.19 504.29 210.10 500.91 210.69 497.61 C 210.26 497.62 209.39 497.66 208.96 497.67 C 208.59 499.54 206.78 499.56 205.26 499.79 C 205.31 497.52 205.62 495.26 205.76 493.00 C 204.11 495.36 203.06 498.73 199.64 498.90 C 198.76 495.76 199.91 492.82 201.94 490.45 C 203.96 490.21 206.00 490.31 207.89 491.13 C 210.81 492.23 213.90 492.38 216.99 492.36 C 218.84 492.24 219.82 494.11 220.97 495.25 C 222.21 495.75 223.45 496.25 224.71 496.74 C 224.73 496.01 224.78 494.55 224.80 493.81 C 225.16 492.70 225.51 491.58 225.85 490.47 Z" />
<path fill="#0f0f10" opacity="1.00" d=" M 282.46 490.17 C 284.91 491.19 285.44 494.21 287.90 495.25 C 290.93 496.40 293.77 498.16 297.00 498.74 C 298.88 498.66 300.75 498.41 302.63 498.35 C 302.62 497.73 302.59 496.49 302.57 495.87 C 303.35 495.13 304.12 494.39 304.90 493.66 C 306.72 493.82 308.58 493.87 310.06 492.60 C 311.91 492.32 313.77 492.57 315.34 493.64 C 315.70 494.45 316.08 495.27 316.47 496.09 C 315.34 498.65 313.34 501.04 313.32 503.94 C 317.27 505.80 320.96 508.80 325.51 508.83 C 325.56 509.20 325.65 509.96 325.70 510.33 C 324.39 510.54 323.05 510.78 321.95 511.57 C 320.73 509.80 318.92 508.63 316.84 508.13 C 313.53 506.25 309.60 505.63 305.90 506.63 C 300.31 511.36 297.02 518.58 290.52 522.32 C 288.37 523.77 285.40 524.02 283.97 526.42 C 283.21 526.59 282.45 526.76 281.69 526.94 C 281.43 524.91 281.92 522.25 279.67 521.19 C 277.58 519.95 276.68 517.64 276.07 515.42 C 274.90 515.33 273.73 515.26 272.56 515.19 C 272.59 514.42 272.62 513.66 272.65 512.90 C 273.55 512.38 274.46 511.85 275.37 511.34 C 275.58 511.04 276.02 510.43 276.23 510.13 C 275.23 508.32 275.92 506.43 276.58 504.65 C 281.37 500.91 286.83 505.61 292.05 504.55 C 293.93 504.42 295.44 503.17 296.91 502.13 C 292.74 499.92 288.70 497.48 284.54 495.25 C 282.71 494.29 282.69 491.95 282.46 490.17 Z" />
</g>
</svg>
